<svg width="21" height="20" viewBox="0 0 21 20" fill="none" xmlns="http://www.w3.org/2000/svg">
<path d="M20.0944 8.51032C20.8409 8.51032 21.1525 7.55131 20.5462 7.10924L11.3208 0.398562C11.189 0.302037 11.03 0.25 10.8666 0.25C10.7033 0.25 10.5442 0.302037 10.4125 0.398562L1.18712 7.10924C0.580796 7.54889 0.892415 8.51032 1.64127 8.51032H3.13655V17.5449H1.39729C1.291 17.5449 1.20403 17.6318 1.20403 17.7381V18.9942C1.20403 19.1005 1.291 19.1875 1.39729 19.1875H20.336C20.4423 19.1875 20.5292 19.1005 20.5292 18.9942V17.7381C20.5292 17.6318 20.4423 17.5449 20.336 17.5449H18.5967V8.51032H20.0944ZM10.8666 2.1016L17.4155 6.86526H4.31781L10.8666 2.1016ZM4.87582 8.51032H7.70214V17.5449H4.87582V8.51032ZM9.44141 8.51032H12.2677V17.5449H9.44141V8.51032ZM16.8575 17.5449H14.007V8.51032H16.8575V17.5449Z" fill="#FF6F00"/>
</svg>
